<svg width="26" height="20" viewBox="0 0 26 20" fill="none" xmlns="http://www.w3.org/2000/svg">
<path fill-rule="evenodd" clip-rule="evenodd" d="M22.8949 0.744116H3.10348C1.9409 0.744116 0.99276 1.69159 0.99276 2.85469V16.925C0.99276 18.0841 1.93678 19.035 3.10348 19.035H22.8949C24.0545 19.035 25.0057 18.0917 25.0057 16.925V2.85469C25.0057 1.69559 24.0617 0.744116 22.8949 0.744116ZM22.6034 2.15146L13.0441 11.7111L3.40143 2.15146H22.6034ZM2.39982 16.6344V3.13954L9.17598 9.85737L2.39982 16.6344ZM3.39491 17.6283L10.175 10.8485L12.551 13.2035C12.8261 13.4768 13.2701 13.4758 13.5437 13.2017L15.8601 10.8852L22.6034 17.6283H3.39491ZM23.5988 16.6344L16.8547 9.88956L23.5988 3.14592V16.6344Z" fill="#C8C9D0"/>
</svg>
