<svg width="21" height="27" viewBox="0 0 21 27" fill="none" xmlns="http://www.w3.org/2000/svg">
<path fill-rule="evenodd" clip-rule="evenodd" d="M19.2046 5.51813C17.3176 2.64605 14.3264 0.998332 10.9991 0.998332C7.67163 0.998332 4.68116 2.64605 2.79378 5.51813C0.91568 8.37683 0.481976 11.9952 1.63119 15.1918C1.93873 16.0654 2.42763 16.9132 3.08024 17.7087L10.341 26.6773C10.5056 26.8811 10.7459 26.998 10.9991 26.998C11.2525 26.998 11.493 26.8811 11.6572 26.6773L18.9156 17.7103C19.5715 16.912 20.0599 16.0638 20.3648 15.1982C21.5159 11.9952 21.0824 8.37683 19.2046 5.51813ZM18.7457 14.5609C18.511 15.2286 18.1272 15.8906 17.6058 16.5253C17.6044 16.5271 17.6028 16.5276 17.6016 16.5304L10.9991 24.6865L4.39266 16.5253C3.87152 15.8911 3.48771 15.2309 3.25028 14.5553C2.3001 11.9118 2.6606 8.92018 4.21556 6.55293C5.77551 4.17766 8.24811 2.81585 10.9991 2.81585C13.7499 2.81585 16.2227 4.17766 17.7825 6.55293C19.3378 8.92018 19.6988 11.9118 18.7457 14.5609ZM10.9991 6.39172C8.33024 6.39172 6.15882 8.67608 6.15882 11.4831C6.15882 14.29 8.33005 16.5736 10.9991 16.5736C13.6687 16.5736 15.8398 14.29 15.8398 11.4831C15.8398 8.67608 13.668 6.39172 10.9991 6.39172ZM10.9991 14.7555C9.28335 14.7555 7.88761 13.288 7.88761 11.4831C7.88761 9.67812 9.28335 8.20985 10.9991 8.20985C12.7145 8.20985 14.1113 9.67812 14.1113 11.4831C14.1113 13.288 12.7145 14.7555 10.9991 14.7555Z" fill="#C8C9D0"/>
</svg>
