<svg width="24" height="24" viewBox="0 0 24 24" fill="none" xmlns="http://www.w3.org/2000/svg">
<path fill-rule="evenodd" clip-rule="evenodd" d="M19.5429 4.4496C21.3821 6.28611 22.5793 8.59522 23.0123 11.1317C23.0755 11.4861 22.8321 11.8257 22.4769 11.8798C22.4729 11.8803 22.4689 11.8808 22.465 11.8813C22.431 11.8853 22.4001 11.889 22.3655 11.889C22.0485 11.889 21.7715 11.6657 21.7182 11.3451C21.3336 9.08043 20.263 7.01528 18.6187 5.37273C16.9736 3.73481 14.9057 2.66129 12.6379 2.27808C12.2783 2.21417 12.0397 1.87919 12.0978 1.5194C12.1612 1.1644 12.4972 0.921478 12.8524 0.984216C15.3924 1.41769 17.7037 2.61293 19.5429 4.4496ZM18.2047 15.2376C17.7328 14.7471 17.1635 14.4842 16.5601 14.4842C15.9617 14.4842 15.3876 14.742 14.8961 15.2324L13.3584 16.7632C13.2572 16.7089 13.156 16.6573 13.0574 16.6069L13.0574 16.6069L12.9837 16.5693L12.9585 16.5566C12.7928 16.4734 12.6363 16.3948 12.502 16.3115C11.0617 15.3976 9.75272 14.2073 8.49722 12.6665C7.88918 11.8988 7.48051 11.2526 7.18362 10.5969C7.54129 10.2698 7.8753 9.93127 8.19993 9.60222L8.31227 9.4884C8.38067 9.42031 8.44899 9.35091 8.51729 9.28153L8.51738 9.28144C8.58529 9.21245 8.65318 9.14349 8.72111 9.07586C9.74295 8.05528 9.74295 6.73336 8.72111 5.71294L7.39308 4.38686L7.38148 4.37524C7.23394 4.22752 7.08268 4.07606 6.94019 3.92463C6.64842 3.62374 6.3416 3.31171 6.02548 3.02106C5.55355 2.55436 4.9889 2.30626 4.39541 2.30626C3.8016 2.30626 3.22769 2.55436 2.74101 3.02106C2.73836 3.02393 2.73717 3.02521 2.73586 3.02636L2.73159 3.02966L1.07668 4.69709C0.453895 5.3192 0.0990341 6.07775 0.0213821 6.95714C-0.0955279 8.37589 0.322594 9.69736 0.64384 10.563C1.43221 12.6867 2.60955 14.655 4.36644 16.7632C6.49757 19.3049 9.06155 21.3118 11.9908 22.7253C13.1104 23.2559 14.6042 23.8822 16.273 23.9893C16.375 23.9945 16.4821 23.9996 16.5795 23.9996C17.7037 23.9996 18.6477 23.5956 19.3874 22.7938C19.3897 22.7889 19.3934 22.7853 19.3971 22.7816C19.4007 22.7781 19.4043 22.7745 19.4068 22.7697C19.6409 22.4861 19.9085 22.2278 20.1902 21.9559L20.258 21.8903C20.4673 21.6911 20.6818 21.4822 20.8909 21.2622C21.3721 20.7628 21.6255 20.1791 21.6255 19.5818C21.6255 18.9797 21.3675 18.4007 20.8759 17.9149L18.2047 15.2376ZM19.9467 20.3547C19.7877 20.5259 19.6252 20.6834 19.4536 20.8497L19.3529 20.9474C19.0366 21.2491 18.7156 21.5651 18.4139 21.9191C17.9228 22.4445 17.3437 22.6914 16.5846 22.6914C16.5114 22.6914 16.4334 22.6914 16.3604 22.6874C14.9151 22.5947 13.5722 22.0312 12.5654 21.5495C9.81137 20.2182 7.39308 18.3276 5.38299 15.9322C3.72395 13.9345 2.61433 12.0888 1.87979 10.1061C1.42722 8.89568 1.26182 7.95339 1.33501 7.06421C1.3835 6.49564 1.60226 6.02421 2.00629 5.62025L3.66584 3.96319C3.90377 3.73985 4.15697 3.61898 4.40518 3.61898C4.71169 3.61898 4.96009 3.80316 5.11539 3.95859C5.11889 3.96171 5.12214 3.9651 5.12549 3.96858L5.13032 3.97357C5.42686 4.24984 5.70904 4.53709 6.00593 4.84316C6.06871 4.90744 6.13222 4.97193 6.19618 5.03686C6.28627 5.12833 6.37724 5.22068 6.46825 5.31462L7.79663 6.64127C8.31227 7.1563 8.31227 7.63294 7.79663 8.14797C7.74281 8.20141 7.68979 8.25502 7.63697 8.30841L7.63688 8.30851L7.63686 8.30853C7.55092 8.39542 7.46553 8.48175 7.37818 8.56587C6.96951 8.98317 6.5802 9.37215 6.15713 9.75149C6.15451 9.7538 6.15189 9.75591 6.14936 9.75794C6.14245 9.76348 6.13621 9.76849 6.13245 9.77565C5.71385 10.1934 5.79217 10.6015 5.87976 10.8778C5.88232 10.8864 5.88492 10.8944 5.88755 10.9025C5.88969 10.9091 5.89184 10.9157 5.89399 10.9227C6.23959 11.7578 6.72643 12.5457 7.46577 13.4832L7.47074 13.4878C8.81366 15.1403 10.2295 16.4284 11.7916 17.4148C11.986 17.5378 12.1854 17.6378 12.376 17.7334L12.3902 17.7405C12.5654 17.8274 12.7305 17.9103 12.8718 17.9984C12.8818 18.0029 12.892 18.0092 12.9022 18.0156C12.9116 18.0215 12.921 18.0273 12.9304 18.0318C13.0956 18.1141 13.2515 18.1532 13.4121 18.1532C13.8145 18.1532 14.0672 17.9021 14.1508 17.819L14.1516 17.8182L15.8154 16.1561C15.981 15.9909 16.2438 15.7917 16.5503 15.7917C16.852 15.7917 17.1003 15.9817 17.2511 16.1463L17.2552 16.1506L17.2607 16.1561L19.9418 18.833C20.4432 19.3297 20.4432 19.8391 19.9467 20.3547ZM12.4439 6.45129C13.7184 6.66545 14.8766 7.26797 15.8012 8.1911C16.7257 9.11486 17.3243 10.2707 17.5431 11.5448C17.5965 11.8649 17.8739 12.0888 18.1903 12.0888C18.2225 12.0888 18.2513 12.0852 18.2823 12.0814L18.3018 12.079C18.6619 12.0203 18.9004 11.6813 18.8421 11.3205C18.5796 9.78025 17.8496 8.37589 16.7355 7.26337C15.6209 6.15026 14.2147 5.42109 12.6724 5.15919C12.3122 5.09989 11.9764 5.33877 11.9132 5.69396C11.8499 6.04896 12.0836 6.39375 12.4439 6.45129Z" fill="#C8C9D0"/>
</svg>
