<svg version="1.1" id="Слой_1" xmlns="http://www.w3.org/2000/svg" xmlns:xlink="http://www.w3.org/1999/xlink" x="0px" y="0px" viewBox="0 0 531.88 162.28" style="enable-background:new 0 0 531.88 162.28;" xml:space="preserve">
                        <style type="text/css">
                            .st0{fill:#FFC629 !important;}
                            .st1{fill:#FFFFFF;}
                        </style>
                        <g>
                            <rect x="1.15" y="27.44" class="st0" width="84.05" height="84.05"></rect>
                            <path class="st1" d="M88.48,27.44h39.74c9.21,0,17.37,1.72,24.5,5.16c7.12,3.45,12.64,8.33,16.57,14.65
                                c3.92,6.32,5.88,13.73,5.88,22.21c0,8.49-1.96,15.89-5.88,22.21c-3.93,6.32-9.45,11.21-16.57,14.65
                                c-7.13,3.44-15.29,5.16-24.5,5.16H88.48V27.44z M127.27,93.1c12.44,0,23.89-8.13,23.89-23.63c0-15.55-11.66-23.73-23.89-23.73
                                h-15.01V93.1H127.27z"></path>
                            <g>
                                <path class="st1" d="M200.06,101.48c-6.79-6.67-10.18-16.13-10.18-28.37V27.44h23.31v44.96c0,13.19,5.22,19.78,15.66,19.78
                                    c10.36,0,15.54-6.59,15.54-19.78V27.44h22.95v45.67c0,12.24-3.39,21.7-10.18,28.37c-6.79,6.67-16.3,10.01-28.55,10.01
                                    S206.85,108.16,200.06,101.48z"></path>
                                <path class="st1" d="M206.4,16.62c-1.8-1.72-2.7-3.98-2.7-6.78c0-2.8,0.9-5.09,2.7-6.84c1.8-1.76,4.06-2.64,6.78-2.64
                                    c2.72,0,4.98,0.88,6.78,2.64c1.8,1.76,2.7,4.04,2.7,6.84c0,2.8-0.9,5.06-2.7,6.78c-1.8,1.72-4.07,2.58-6.78,2.58
                                    C210.46,19.2,208.2,18.34,206.4,16.62z"></path>
                                <path class="st1" d="M237.59,16.62c-1.8-1.72-2.7-3.98-2.7-6.78c0-2.8,0.9-5.09,2.7-6.84c1.8-1.76,4.06-2.64,6.78-2.64
                                    c2.72,0,4.98,0.88,6.78,2.64c1.81,1.76,2.71,4.04,2.71,6.84c0,2.8-0.9,5.06-2.71,6.78c-1.8,1.72-4.06,2.58-6.78,2.58
                                    C241.66,19.2,239.4,18.34,237.59,16.62z"></path>
                            </g>
                            <path class="st1" d="M318.78,89.16h-12.97v22.33h-23.77V27.44h38.42c7.6,0,14.21,1.26,19.81,3.78c5.61,2.52,9.93,6.12,12.97,10.8
                                c3.04,4.68,4.57,10.19,4.57,16.51c0,6.08-1.42,11.39-4.27,15.91c-2.84,4.52-6.9,8.07-12.19,10.63l18.13,26.42h-25.46L318.78,89.16z
                                 M330.07,49.42c-2.48-2.16-6.16-3.24-11.05-3.24h-13.21v24.61h13.21c4.88,0,8.56-1.06,11.05-3.18c2.48-2.12,3.72-5.14,3.72-9.06
                                C333.79,54.62,332.55,51.58,330.07,49.42z"></path>
                            <path class="st1" d="M438.57,93.12v18.37l-66.09,0V27.44h65.92v18.37h-42.38v14.17h42.46l0.09,17.77l-42.55,0v15.37L438.57,93.12z"></path>
                            <path class="st1" d="M490.02,89.16h-12.97v22.33h-23.77V27.44h38.42c7.6,0,14.21,1.26,19.81,3.78c5.61,2.52,9.93,6.12,12.97,10.8
                                c3.04,4.68,4.57,10.19,4.57,16.51c0,6.08-1.42,11.39-4.27,15.91c-2.84,4.52-6.9,8.07-12.19,10.63l18.13,26.42h-25.46L490.02,89.16z
                                 M501.31,49.42c-2.48-2.16-6.16-3.24-11.05-3.24h-13.21v24.61h13.21c4.88,0,8.56-1.06,11.05-3.18c2.48-2.12,3.72-5.14,3.72-9.06
                                C505.03,54.62,503.79,51.58,501.31,49.42z"></path>
                            <path class="st1" d="M69.66,66.94H57.68V53.37H28.68v13.58H16.7v18.63h23.95h5.05h23.95V66.94z M28.68,71.99h11.98v8.52h-18.9
                                v-8.52H28.68z M52.63,66.94h-6.92h-5.05h-6.92v-8.52h18.9V66.94z M64.6,80.52h-18.9v-8.52h11.98h6.92V80.52z"></path>
                            <g>
                                <path class="st1" d="M160.06,156.61v-16h2.56v6.58h2.69l2.41-4.05c0.35-0.58,0.68-1.06,0.99-1.44c0.31-0.38,0.62-0.68,0.93-0.9
                                    c0.31-0.22,0.63-0.37,0.96-0.45c0.33-0.08,0.7-0.12,1.11-0.12c0.19,0,0.38,0.02,0.57,0.06c0.19,0.04,0.37,0.08,0.51,0.13
                                    l-0.46,2.35c-0.1-0.04-0.21-0.07-0.31-0.09c-0.1-0.02-0.22-0.03-0.34-0.03c-0.37,0-0.71,0.12-1,0.36c-0.3,0.24-0.69,0.74-1.16,1.5
                                    l-2.16,3.55l5.81,8.55h-2.75l-5.06-7.32h-2.72v7.32H160.06z"></path>
                                <path class="st1" d="M176.4,156.99c-0.29,0-0.56-0.02-0.82-0.05c-0.26-0.03-0.5-0.09-0.72-0.17l0.52-2.32
                                    c0.12,0.04,0.24,0.07,0.34,0.09c0.1,0.02,0.22,0.03,0.34,0.03c0.23,0,0.44-0.05,0.64-0.14c0.19-0.09,0.39-0.28,0.58-0.57
                                    c0.19-0.29,0.39-0.71,0.57-1.27c0.18-0.55,0.38-1.29,0.59-2.19c0.35-1.63,0.68-3.24,1-4.85c0.32-1.61,0.65-3.25,0.97-4.94h8.9v16
                                    h-2.57v-13.9h-4.39c-0.27,1.36-0.52,2.7-0.76,4.01c-0.24,1.32-0.5,2.63-0.79,3.92c-0.26,1.26-0.54,2.29-0.83,3.1
                                    c-0.29,0.81-0.61,1.46-0.96,1.94c-0.35,0.48-0.74,0.82-1.16,1C177.44,156.89,176.95,156.99,176.4,156.99z"></path>
                                <path class="st1" d="M208.92,140.61v16h-2.38v-7.57c0-0.87,0.04-1.76,0.12-2.67c0.08-0.92,0.16-1.8,0.22-2.64h-0.13l-1.85,3.43
                                    l-5.93,9.45h-2.56v-16h2.38v7.51c0,0.87-0.04,1.78-0.12,2.73c-0.08,0.96-0.16,1.84-0.22,2.64h0.12l1.85-3.43l5.87-9.45H208.92z"></path>
                                <path class="st1" d="M216.03,156.61v-16h2.57v6.52h7.66v-6.52h2.56v16h-2.56v-7.26h-7.66v7.26H216.03z"></path>
                                <path class="st1" d="M235.92,156.61v-16h2.56v6.58h2.69l2.41-4.05c0.35-0.58,0.68-1.06,0.99-1.44c0.31-0.38,0.62-0.68,0.93-0.9
                                    c0.31-0.22,0.63-0.37,0.96-0.45c0.33-0.08,0.7-0.12,1.11-0.12c0.19,0,0.38,0.02,0.57,0.06c0.19,0.04,0.37,0.08,0.51,0.13
                                    l-0.46,2.35c-0.1-0.04-0.2-0.07-0.31-0.09c-0.1-0.02-0.22-0.03-0.34-0.03c-0.37,0-0.71,0.12-1,0.36c-0.3,0.24-0.68,0.74-1.16,1.5
                                    l-2.16,3.55l5.81,8.55h-2.75l-5.07-7.32h-2.72v7.32H235.92z"></path>
                                <path class="st1" d="M253.49,156.61v-16h10.07v2.04h-7.51v4.63h6.36v1.94h-6.36v5.34h7.81v2.04H253.49z"></path>
                                <path class="st1" d="M269.71,156.61v-16h5.47c0.95,0,1.82,0.08,2.61,0.25c0.79,0.16,1.47,0.44,2.04,0.82
                                    c0.57,0.38,1.01,0.88,1.33,1.5c0.32,0.62,0.48,1.38,0.48,2.29c0,0.87-0.16,1.62-0.48,2.27c-0.32,0.65-0.77,1.18-1.34,1.59
                                    c-0.58,0.41-1.26,0.72-2.04,0.93c-0.78,0.21-1.65,0.31-2.59,0.31h-2.9v6.05H269.71z M272.27,148.71h2.72
                                    c1.42,0,2.47-0.26,3.13-0.77c0.67-0.51,1-1.3,1-2.35c0-1.09-0.34-1.85-1.03-2.29c-0.69-0.43-1.75-0.65-3.17-0.65h-2.65V148.71z"></path>
                                <path class="st1" d="M293.28,156.99v-2.44c-2.31-0.08-4.11-0.63-5.41-1.64c-1.3-1.01-1.95-2.47-1.95-4.39
                                    c0-1.91,0.65-3.38,1.95-4.39c1.3-1.01,3.1-1.55,5.41-1.64v-2.25h2.19v2.25c2.31,0.08,4.11,0.63,5.42,1.64
                                    c1.31,1.01,1.96,2.47,1.96,4.39c0,1.92-0.65,3.38-1.96,4.39c-1.31,1.01-3.12,1.55-5.42,1.64v2.44H293.28z M288.33,148.52
                                    c0,1.3,0.43,2.3,1.28,3c0.85,0.7,2.07,1.07,3.66,1.11v-8.19c-1.59,0.04-2.81,0.41-3.66,1.1
                                    C288.76,146.23,288.33,147.22,288.33,148.52z M300.41,148.52c0-1.3-0.43-2.29-1.28-2.98c-0.85-0.69-2.07-1.06-3.66-1.1v8.19
                                    c1.59-0.04,2.81-0.41,3.66-1.11C299.98,150.82,300.41,149.82,300.41,148.52z"></path>
                                <path class="st1" d="M305.75,156.61l5.71-16h2.9l5.74,16h-2.72l-1.48-4.51h-6.09l-1.48,4.51H305.75z M311.22,147.9l-0.74,2.29
                                    h4.82l-0.74-2.29c-0.29-0.88-0.56-1.75-0.8-2.61c-0.25-0.85-0.52-1.72-0.8-2.61h-0.13c-0.29,0.91-0.55,1.78-0.8,2.63
                                    C311.78,146.15,311.51,147.02,311.22,147.9z"></path>
                                <path class="st1" d="M330.93,156.99c-1.09,0-2.1-0.19-3.03-0.56c-0.93-0.37-1.73-0.91-2.41-1.62c-0.68-0.71-1.21-1.58-1.59-2.61
                                    c-0.38-1.03-0.57-2.21-0.57-3.55c0-1.3,0.2-2.47,0.6-3.51c0.4-1.04,0.95-1.93,1.64-2.66c0.69-0.73,1.51-1.29,2.47-1.67
                                    c0.96-0.38,1.99-0.57,3.1-0.57c1.03,0,1.95,0.2,2.77,0.62c0.81,0.41,1.49,0.89,2.02,1.42l-1.45,1.58
                                    c-0.45-0.45-0.94-0.81-1.47-1.06c-0.53-0.26-1.14-0.39-1.84-0.39c-1.59,0-2.85,0.55-3.8,1.64c-0.95,1.09-1.42,2.61-1.42,4.54
                                    c0,1.96,0.45,3.48,1.36,4.59c0.9,1.1,2.15,1.65,3.74,1.65c0.8,0,1.51-0.15,2.12-0.45c0.61-0.3,1.17-0.71,1.68-1.25l1.42,1.54
                                    c-0.7,0.76-1.49,1.34-2.36,1.73C333.03,156.79,332.04,156.99,330.93,156.99z"></path>
                                <path class="st1" d="M338.9,156.61l5.71-16h2.9l5.74,16h-2.72l-1.48-4.51h-6.09l-1.48,4.51H338.9z M344.36,147.9l-0.74,2.29h4.82
                                    l-0.74-2.29c-0.29-0.88-0.56-1.75-0.81-2.61c-0.25-0.85-0.51-1.72-0.8-2.61h-0.12c-0.29,0.91-0.56,1.78-0.8,2.63
                                    C344.92,146.15,344.65,147.02,344.36,147.9z"></path>
                                <path class="st1" d="M358.32,161.93h-2.19l-0.25-5.81v-1.67h0.84c0.19-0.08,0.37-0.24,0.56-0.46c0.19-0.23,0.38-0.55,0.57-0.99
                                    c0.19-0.43,0.39-0.99,0.59-1.67c0.19-0.68,0.4-1.52,0.6-2.53c0.17-0.76,0.31-1.46,0.43-2.1s0.24-1.27,0.35-1.9
                                    c0.11-0.63,0.23-1.28,0.36-1.94c0.12-0.67,0.26-1.42,0.4-2.24h9.08v13.84h2.16v1.67l-0.25,5.81h-2.19v-5.31h-11.06V161.93z
                                     M361.35,149.2c-0.49,2.43-1.09,4.18-1.79,5.25h7.51v-11.74h-4.51c-0.12,0.62-0.23,1.19-0.32,1.71c-0.09,0.53-0.19,1.03-0.28,1.53
                                    c-0.09,0.49-0.19,1-0.28,1.53C361.58,148.01,361.47,148.58,361.35,149.2z"></path>
                            </g>
                        </g>
                    </svg>