<svg version="1.1" id="Слой_1" xmlns="http://www.w3.org/2000/svg" xmlns:xlink="http://www.w3.org/1999/xlink" x="0px" y="0px" viewBox="0 0 531.88 162.28" style="enable-background:new 0 0 531.88 162.28;" xml:space="preserve">
                        <style type="text/css">
                            .st0{fill:#FFC629 !important;}
                            .st1{fill:#000000;}
                        </style>
                        <g>
                            <rect x="1.15" y="27.44" class="st0" width="84.05" height="84.05"></rect>
                            <path class="st1" d="M88.48,27.44h39.74c9.21,0,17.37,1.72,24.5,5.16c7.12,3.45,12.64,8.33,16.57,14.65
                                c3.92,6.32,5.88,13.73,5.88,22.21c0,8.49-1.96,15.89-5.88,22.21c-3.93,6.32-9.45,11.21-16.57,14.65
                                c-7.13,3.44-15.29,5.16-24.5,5.16H88.48V27.44z M127.27,93.1c12.44,0,23.89-8.13,23.89-23.63c0-15.55-11.66-23.73-23.89-23.73
                                h-15.01V93.1H127.27z"></path>
                            <g>
                                <path class="st1" d="M200.06,101.48c-6.79-6.67-10.18-16.13-10.18-28.37V27.44h23.31v44.96c0,13.19,5.22,19.78,15.66,19.78
                                    c10.36,0,15.54-6.59,15.54-19.78V27.44h22.95v45.67c0,12.24-3.39,21.7-10.18,28.37c-6.79,6.67-16.3,10.01-28.55,10.01
                                    S206.85,108.16,200.06,101.48z"></path>
                                <path class="st1" d="M206.4,16.62c-1.8-1.72-2.7-3.98-2.7-6.78c0-2.8,0.9-5.09,2.7-6.84c1.8-1.76,4.06-2.64,6.78-2.64
                                    c2.72,0,4.98,0.88,6.78,2.64c1.8,1.76,2.7,4.04,2.7,6.84c0,2.8-0.9,5.06-2.7,6.78c-1.8,1.72-4.07,2.58-6.78,2.58
                                    C210.46,19.2,208.2,18.34,206.4,16.62z"></path>
                                <path class="st1" d="M237.59,16.62c-1.8-1.72-2.7-3.98-2.7-6.78c0-2.8,0.9-5.09,2.7-6.84c1.8-1.76,4.06-2.64,6.78-2.64
                                    c2.72,0,4.98,0.88,6.78,2.64c1.81,1.76,2.71,4.04,2.71,6.84c0,2.8-0.9,5.06-2.71,6.78c-1.8,1.72-4.06,2.58-6.78,2.58
                                    C241.66,19.2,239.4,18.34,237.59,16.62z"></path>
                            </g>
                            <path class="st1" d="M318.78,89.16h-12.97v22.33h-23.77V27.44h38.42c7.6,0,14.21,1.26,19.81,3.78c5.61,2.52,9.93,6.12,12.97,10.8
                                c3.04,4.68,4.57,10.19,4.57,16.51c0,6.08-1.42,11.39-4.27,15.91c-2.84,4.52-6.9,8.07-12.19,10.63l18.13,26.42h-25.46L318.78,89.16z
                                 M330.07,49.42c-2.48-2.16-6.16-3.24-11.05-3.24h-13.21v24.61h13.21c4.88,0,8.56-1.06,11.05-3.18c2.48-2.12,3.72-5.14,3.72-9.06
                                C333.79,54.62,332.55,51.58,330.07,49.42z"></path>
                            <path class="st1" d="M438.57,93.12v18.37l-66.09,0V27.44h65.92v18.37h-42.38v14.17h42.46l0.09,17.77l-42.55,0v15.37L438.57,93.12z"></path>
                            <path class="st1" d="M490.02,89.16h-12.97v22.33h-23.77V27.44h38.42c7.6,0,14.21,1.26,19.81,3.78c5.61,2.52,9.93,6.12,12.97,10.8
                                c3.04,4.68,4.57,10.19,4.57,16.51c0,6.08-1.42,11.39-4.27,15.91c-2.84,4.52-6.9,8.07-12.19,10.63l18.13,26.42h-25.46L490.02,89.16z
                                 M501.31,49.42c-2.48-2.16-6.16-3.24-11.05-3.24h-13.21v24.61h13.21c4.88,0,8.56-1.06,11.05-3.18c2.48-2.12,3.72-5.14,3.72-9.06
                                C505.03,54.62,503.79,51.58,501.31,49.42z"></path>
                        </g>
                    </svg>